<svg width="135" height="28" viewBox="0 0 135 28" fill="none" xmlns="http://www.w3.org/2000/svg">
<g id="Group 1940685970">
<g id="Group 1940685957">
<path id="Vector" d="M24.6386 6.05432L14.8676 17.4712L15.9176 18.9411L25.4462 7.80774H29.2552L16.604 22.9277L10.0598 13.7663H1.81006L8.32347 22.8782H12.2298L10.9766 21.1248H9.22494L5.21957 15.5214H9.15664L16.493 25.7909L33.0096 6.05432H24.6386Z" fill="#1B152B"/>
<path id="Vector_2" d="M24.6639 18.7634C23.6924 21.1144 22.0261 23.0915 19.9295 24.4215C18.3912 25.398 16.6207 26.0246 14.7256 26.1937C14.3807 26.2244 14.0324 26.2398 13.6807 26.2398C8.20195 26.2398 3.57512 22.4256 2.18537 17.249C1.90707 16.2127 1.75854 15.1234 1.75854 13.9966C1.75854 13.5083 1.78585 13.0268 1.84049 12.5522C2.53707 6.48268 7.58049 1.75683 13.6807 1.75683C17.1859 1.75683 20.3444 3.31902 22.5263 5.79976L23.0846 5.14585C23.2861 4.91024 23.5251 4.71561 23.7898 4.56537C23.6515 4.41 23.508 4.25634 23.3612 4.1061C20.7763 1.45976 17.3378 0 13.6807 0C10.0237 0 6.58341 1.45976 3.99854 4.1078C1.42049 6.75073 0 10.2644 0 14C0 17.7356 1.42049 21.2476 3.99854 23.8922C6.58341 26.542 10.022 28 13.679 28C17.3361 28 20.7746 26.5402 23.3595 23.8922C25.5534 21.6437 26.909 18.7651 27.2641 15.6544L24.6605 18.7651L24.6639 18.7634Z" fill="#1B152B"/>
<path id="Vector_3" d="M13.681 4.87457C9.44852 4.87457 5.89559 7.90335 4.98389 11.9514H6.79535C7.66096 8.88165 10.42 6.6314 13.681 6.6314C15.9875 6.6314 18.0432 7.75823 19.3561 9.50482L20.5205 8.14409C18.8832 6.14652 16.4246 4.87457 13.6827 4.87457H13.681Z" fill="#1B152B"/>
</g>
<path id="Union" d="M97.2871 5.63507C98.1747 5.63512 99.0281 5.77481 99.832 6.03253H99.8311C103.189 7.10999 105.629 10.308 105.629 13.9769C105.629 17.6457 103.247 20.7699 99.9453 21.8831C99.1106 22.1648 98.2157 22.3186 97.2871 22.3187C96.3583 22.3187 95.4628 22.1648 94.6279 21.8831C91.328 20.7716 88.9444 17.6883 88.9443 13.9769C88.9443 10.2652 91.3832 7.10985 94.7432 6.03253C95.5455 5.77479 96.3994 5.63507 97.2871 5.63507ZM126.641 5.63507C127.528 5.63508 128.382 5.77473 129.185 6.03253C130.658 6.50547 131.956 7.37816 132.949 8.52374V6.03253H134.983V21.8851H132.949V19.43L132.765 19.636C131.825 20.6507 130.637 21.4334 129.299 21.8831C128.464 22.1648 127.569 22.3187 126.641 22.3187C125.712 22.3187 124.817 22.1648 123.982 21.8831C120.682 20.7717 118.299 17.6885 118.299 13.9769C118.299 10.2652 120.737 7.10985 124.097 6.03253C124.899 5.77473 125.753 5.63507 126.641 5.63507ZM58.8789 7.24152C61.2896 5.47959 64.5147 5.12196 67.2686 6.38702C67.7602 6.61067 68.2383 6.88761 68.6924 7.2171C68.7964 7.29382 68.9004 7.37064 69.001 7.45245L69 7.45343L69.001 7.45441L68.2334 8.51202L67.8076 9.09894L67.8066 9.09796L60.4268 19.262C63.2078 21.0319 66.932 20.3513 68.8936 17.6507C70.1399 15.9348 70.391 13.7917 69.7559 11.9222L71.1387 10.0276C72.1801 11.9808 72.4124 14.3025 71.7432 16.4417C71.4802 17.28 71.0807 18.0909 70.5361 18.8421C69.9915 19.5916 69.3448 20.2239 68.626 20.7327C65.7935 22.7473 61.875 22.8388 58.9111 20.6859C55.915 18.509 54.798 14.6918 55.8975 11.3489C56.1604 10.5499 56.5484 9.77988 57.0674 9.06281C57.5881 8.34579 58.1994 7.74003 58.8789 7.24152ZM46.2607 17.4798L51.5264 6.03253H53.7646L47.3809 19.9134V19.9144L46.4736 21.8851H46.0469L45.1426 19.9144L38.7568 6.03253H40.9932L46.2607 17.4798ZM76.3174 6.03253L80.5371 11.8099L84.752 6.03253H87.2705L81.793 13.5345L87.8896 21.8851H85.3701L80.5361 15.2591L75.7002 21.8851H73.1816L79.2764 13.5345L73.7998 6.03253H76.3174ZM116.622 8.06573H115.627C113.302 8.06574 111.411 9.95735 111.411 12.2825V21.8851H109.378V12.2825C109.378 8.83564 112.182 6.03254 115.627 6.03253H116.622V8.06573ZM97.2871 7.66827C93.8093 7.66827 90.9785 10.4991 90.9785 13.9769C90.9787 17.4546 93.8094 20.2855 97.2871 20.2855C100.765 20.2852 103.595 17.4544 103.595 13.9769C103.595 10.4992 100.765 7.66851 97.2871 7.66827ZM126.641 7.66827C123.161 7.66827 120.332 10.4991 120.332 13.9769C120.332 17.4546 123.161 20.2855 126.641 20.2855C130.118 20.2854 132.949 17.4545 132.949 13.9769C132.949 10.4991 130.12 7.6683 126.641 7.66827ZM66.0459 8.07062C63.4544 7.08225 60.4156 7.90525 58.71 10.2542C57.0044 12.6034 57.1647 15.7483 58.9043 17.9046L66.0459 8.07062Z" fill="#1B152B"/>
</g>
</svg>
