<svg width="51" height="56" viewBox="0 0 51 56" fill="none" xmlns="http://www.w3.org/2000/svg">
<g id="Group 5">
<path id="Vector" d="M30.9815 42.6544C26.4108 42.6544 21.882 41.0709 18.277 38.0537L17.4792 37.3819L17.6592 36.3562C18.8889 29.4341 23.7415 23.6517 30.3217 21.2524C36.9018 18.8591 44.3398 20.1667 49.7263 24.6775L50.524 25.3433L50.3441 26.369C49.1144 33.2911 44.2618 39.0734 37.6816 41.4728C35.5042 42.2646 33.2369 42.6485 30.9815 42.6485V42.6544ZM21.4262 35.9423C25.7509 39.0974 31.4134 39.9312 36.458 38.0897C41.5026 36.2542 45.3055 31.9774 46.5831 26.7769C42.2584 23.6217 36.6019 22.788 31.5573 24.6295C26.5127 26.465 22.7098 30.7418 21.4321 35.9363L21.4262 35.9423Z" fill="white"/>
<path id="Vector_2" d="M13.6044 27.4972C11.3431 27.4972 9.09371 26.8194 7.19224 25.4938C3.92315 23.2144 2.09366 19.3215 2.42956 15.3326L2.51354 14.2949L3.45528 13.851C7.07827 12.1535 11.3611 12.5194 14.6362 14.7988C17.9053 17.0781 19.7347 20.971 19.3988 24.9599L19.3149 25.9976L18.3731 26.4415C16.8615 27.1493 15.23 27.4972 13.6044 27.4972ZM6.00457 16.7242C6.14253 19.0396 7.3302 21.199 9.24966 22.5366C11.1751 23.8742 13.6104 24.2401 15.8298 23.5683C15.6919 21.253 14.5042 19.0936 12.5847 17.7559C10.6653 16.4183 8.22395 16.0524 6.00457 16.7242Z" fill="white"/>
<path id="Vector_3" d="M34.0825 1.56556C32.6009 1.01372 31.0534 0.599833 29.4518 0.341905C28.1082 0.113968 26.7286 0 25.3189 0C11.3608 0 0 11.3608 0 25.319C0 38.2514 9.74129 48.9464 22.2658 50.458C21.1621 49.1083 20.1664 47.6807 19.2846 46.1871C10.2391 43.5659 3.599 35.2042 3.599 25.319C3.599 13.3463 13.3463 3.599 25.3189 3.599H25.3849C25.9608 3.599 26.5366 3.62299 27.1005 3.67698C27.6523 3.71896 28.1981 3.77895 28.732 3.86892C29.2599 3.9529 29.7817 4.05487 30.2916 4.17484C30.7954 4.28881 31.2873 4.42677 31.7732 4.57673C32.241 4.72069 32.7029 4.88264 33.1528 5.06259C41.2685 8.21171 47.0389 16.1055 47.0389 25.319C47.0389 36.6798 38.2813 46.0312 27.1604 46.9609C26.6686 47.0089 26.1767 47.0329 25.6728 47.0389C25.5589 47.0449 25.4389 47.0449 25.3189 47.0449C24.9231 47.0449 24.5332 47.0329 24.1433 47.0089C23.6154 46.9849 23.0876 46.9369 22.5717 46.871C22.0259 46.805 21.486 46.715 20.9522 46.601C21.8519 48.0106 22.8596 49.3483 23.9693 50.6139C24.4192 50.6319 24.8691 50.6439 25.3189 50.6439H25.6189C26.1587 50.6379 26.6986 50.6139 27.2324 50.5719C27.7543 50.5359 28.2701 50.4759 28.78 50.404C29.2898 50.338 29.7937 50.254 30.2976 50.152C41.8863 47.8307 50.6379 37.5795 50.6379 25.319C50.6379 14.438 43.7398 5.13457 34.0825 1.56556Z" fill="white"/>
<path id="Vector_4" d="M30.5734 55.9948C30.2075 55.9948 29.8416 55.8868 29.5237 55.6589C20.8561 49.4386 15.6855 39.3614 15.6855 28.7084C15.6855 18.0553 21.15 7.3963 30.3035 1.21202C31.1252 0.654175 32.2469 0.870115 32.8048 1.69788C33.3626 2.51966 33.1467 3.64134 32.3189 4.19919C24.1612 9.71165 19.2845 18.8711 19.2845 28.7084C19.2845 38.5456 23.8973 47.1892 31.6231 52.7377C32.4329 53.3195 32.6128 54.4412 32.037 55.251C31.6831 55.7428 31.1312 56.0008 30.5734 56.0008V55.9948Z" fill="white"/>
</g>
</svg>
