<svg width="143" height="41" viewBox="0 0 143 41" fill="none" xmlns="http://www.w3.org/2000/svg">
<g id="Frame 1940686009" clip-path="url(#clip0_2948_14875)">
<g id="JCB 1" clip-path="url(#clip1_2948_14875)">
<g id="Group">
<path id="Vector" d="M96.6393 31.9347C96.6393 36.3885 93.0296 40.0001 88.574 40.0001H44.7871V8.11941C44.7871 3.66428 48.3974 0.0527344 52.853 0.0527344H96.6393V31.9347Z" fill="white"/>
<path id="Vector_2" fill-rule="evenodd" clip-rule="evenodd" d="M82.3643 23.7664H85.6994C85.803 23.7664 86.0012 23.7498 86.0965 23.7282C86.7379 23.5918 87.2695 23.022 87.2695 22.2464C87.2695 21.4747 86.7379 20.9036 86.0965 20.7646C86.0012 20.7443 85.803 20.7266 85.6994 20.7266H82.3643V23.7664Z" fill="url(#paint0_linear_2948_14875)"/>
<path id="Vector_3" fill-rule="evenodd" clip-rule="evenodd" d="M85.3085 2.74121C82.127 2.74121 79.5469 5.32121 79.5469 8.50333V14.4866H87.6999C87.8892 14.4866 88.1204 14.4999 88.2646 14.5089C90.1096 14.6009 91.4703 15.5479 91.4703 17.1936C91.4703 18.4868 90.5404 19.5907 88.847 19.8385V19.9051C90.7176 20.0354 92.1485 21.0637 92.1485 22.6858C92.1485 24.4377 90.5771 25.565 88.483 25.565H79.5469V37.3112H87.9971C91.1805 37.3112 93.7594 34.731 93.7594 31.5495V2.74121H85.3085Z" fill="url(#paint1_linear_2948_14875)"/>
<path id="Vector_4" fill-rule="evenodd" clip-rule="evenodd" d="M86.8758 17.6104C86.8758 16.849 86.3423 16.3396 85.716 16.2322C85.6576 16.2241 85.4974 16.2075 85.387 16.2075H82.3643V19.0129H85.387C85.4974 19.0129 85.6576 18.9971 85.716 18.9869C86.3423 18.8815 86.8758 18.3708 86.8758 17.6104Z" fill="url(#paint2_linear_2948_14875)"/>
<path id="Vector_5" fill-rule="evenodd" clip-rule="evenodd" d="M53.4291 2.74121C50.247 2.74121 47.6675 5.32121 47.6675 8.50333V22.7328C49.2841 23.5154 50.9527 24.0255 52.6511 24.0255C54.6429 24.0255 55.7385 22.809 55.7385 21.1716V14.4866H60.6935V21.1716C60.6935 23.7866 59.0878 25.8845 53.5815 25.8845C50.2673 25.8845 47.6675 25.1687 47.6675 25.1687V37.3112H56.1177C59.2998 37.3112 61.8787 34.731 61.8787 31.5495V2.74121H53.4291Z" fill="url(#paint3_linear_2948_14875)"/>
<path id="Vector_6" fill-rule="evenodd" clip-rule="evenodd" d="M69.3695 2.74121C66.1886 2.74121 63.6079 5.32121 63.6079 8.50333V16.0466C65.0682 14.7934 67.591 14.0108 71.693 14.1957C73.8905 14.2934 76.2178 14.8824 76.2178 14.8824V17.3212C75.0523 16.7324 73.6543 16.1832 71.8543 16.0479C68.7412 15.8128 66.8689 17.3339 66.8689 20.0271C66.8689 22.7188 68.7412 24.2394 71.8543 24.0045C73.6543 23.8672 75.0707 23.3064 76.2178 22.7328V25.17C76.2178 25.17 73.8905 25.7588 71.693 25.8578C67.591 26.0427 65.0682 25.2607 63.6079 24.0082V37.3112H72.0582C75.2403 37.3112 77.8196 34.731 77.8196 31.5495V2.74121H69.3695Z" fill="url(#paint4_linear_2948_14875)"/>
</g>
</g>
</g>
<defs>
<linearGradient id="paint0_linear_2948_14875" x1="79.6685" y1="22.2464" x2="93.9028" y2="22.2464" gradientUnits="userSpaceOnUse">
<stop stop-color="#007F49"/>
<stop offset="1" stop-color="#62BC46"/>
</linearGradient>
<linearGradient id="paint1_linear_2948_14875" x1="79.6669" y1="20.0258" x2="93.9034" y2="20.0258" gradientUnits="userSpaceOnUse">
<stop stop-color="#007F49"/>
<stop offset="1" stop-color="#62BC46"/>
</linearGradient>
<linearGradient id="paint2_linear_2948_14875" x1="79.669" y1="17.6104" x2="93.9027" y2="17.6104" gradientUnits="userSpaceOnUse">
<stop stop-color="#007F49"/>
<stop offset="1" stop-color="#62BC46"/>
</linearGradient>
<linearGradient id="paint3_linear_2948_14875" x1="47.7869" y1="20.0258" x2="61.9981" y2="20.0258" gradientUnits="userSpaceOnUse">
<stop stop-color="#323377"/>
<stop offset="1" stop-color="#0078C1"/>
</linearGradient>
<linearGradient id="paint4_linear_2948_14875" x1="63.7271" y1="20.0258" x2="77.9391" y2="20.0258" gradientUnits="userSpaceOnUse">
<stop stop-color="#743236"/>
<stop offset="1" stop-color="#ED1846"/>
</linearGradient>
<clipPath id="clip0_2948_14875">
<rect width="142.476" height="40.25" fill="white"/>
</clipPath>
<clipPath id="clip1_2948_14875">
<rect width="51.9024" height="40" fill="white" transform="translate(44.7871)"/>
</clipPath>
</defs>
</svg>
