<svg width="143" height="40" viewBox="0 0 143 40" fill="none" xmlns="http://www.w3.org/2000/svg">
<g id="Frame 1940686009" clip-path="url(#clip0_2948_14898)">
<g id="LOGO-+-SDK-+-payment-icon">
<g id="payment">
<g id="kakaopay">
<g id="&#231;&#188;&#150;&#231;&#187;&#132;">
<g id="Group">
<g id="Mask group">
<mask id="mask0_2948_14898" style="mask-type:luminance" maskUnits="userSpaceOnUse" x="22" y="0" width="100" height="41">
<g id="Group_2">
<path id="Vector" d="M22.769 0.34375H121.231V40.3438H22.769V0.34375Z" fill="white"/>
</g>
</mask>
<g mask="url(#mask0_2948_14898)">
<path id="Fill-1" fill-rule="evenodd" clip-rule="evenodd" d="M101.538 40.3438H42.4615C31.5854 40.3438 22.769 31.3897 22.769 20.3438C22.769 9.29854 31.5854 0.34375 42.4615 0.34375H101.538C112.414 0.34375 121.231 9.29854 121.231 20.3438C121.231 31.3897 112.414 40.3438 101.538 40.3438Z" fill="#FFEB00"/>
</g>
</g>
</g>
<path id="Fill-3" fill-rule="evenodd" clip-rule="evenodd" d="M49.0317 10.3115C43.2985 10.3115 38.6509 14.0403 38.6509 18.6405C38.6509 21.4011 40.3284 23.844 42.9063 25.3595L41.6846 29.9961C41.5672 30.4409 42.0561 30.7942 42.4311 30.5368L47.7335 26.9019C48.1593 26.9448 48.5916 26.9695 49.0317 26.9695C54.765 26.9695 59.4126 23.2407 59.4126 18.6405C59.4126 14.0403 54.765 10.3115 49.0317 10.3115Z" fill="#1E1E1E"/>
<path id="Fill-5" fill-rule="evenodd" clip-rule="evenodd" d="M69.199 15.046V23.2289C69.3958 23.2536 69.8889 23.3038 70.357 23.3038C72.9191 23.3038 73.9053 21.4772 73.9053 18.5996C73.9053 16.0716 73.2397 14.546 71.195 14.546C70.5295 14.546 69.7902 14.7458 69.199 15.046ZM69.199 25.7809V30.9103H65.6021V11.9933H68.1398L68.5828 13.194C69.3472 12.4185 70.5051 11.5928 72.3773 11.5928C75.9006 11.5928 77.576 14.2705 77.5516 18.5996C77.5516 23.1286 74.9645 26.0309 71.2687 26.0309C70.5545 26.0309 70.012 25.9808 69.199 25.7809Z" fill="#1E1E1E"/>
<path id="Fill-7" fill-rule="evenodd" clip-rule="evenodd" d="M87.2194 22.1524V19.6499H85.5683C83.7204 19.6499 82.7843 20.3259 82.7843 21.6771C82.7843 22.7027 83.3018 23.2035 84.3617 23.2035C85.3472 23.2035 86.6032 22.7027 87.2194 22.1524ZM85.1747 17.3233H87.2194V16.8726C87.2194 15.3717 86.3813 14.6703 84.9278 14.6703C83.8192 14.6703 82.39 14.9959 81.232 15.5715L80.2465 13.1192C81.5283 12.2186 83.4993 11.5928 85.2484 11.5928C88.6979 11.5928 90.5701 13.4448 90.5701 16.9729V25.6559H88.0324L87.6631 24.5045C86.2095 25.581 84.8784 26.0309 83.6718 26.0309C81.0352 26.0309 79.5566 24.4297 79.5566 21.7272C79.5566 18.8496 81.5283 17.3233 85.1747 17.3233Z" fill="#1E1E1E"/>
<path id="Fill-9" fill-rule="evenodd" clip-rule="evenodd" d="M101.136 24.2545C99.8789 27.6576 98.3759 30.1347 96.1831 31.5114L93.966 29.434C95.247 28.3082 96.1588 27.207 96.9468 25.7307L92.1675 12.4941L95.7401 11.5179L98.7946 22.2528L101.825 11.4678L105.349 12.4686L101.136 24.2545Z" fill="#1E1E1E"/>
</g>
</g>
</g>
</g>
</g>
<defs>
<clipPath id="clip0_2948_14898">
<rect width="143" height="40" fill="white"/>
</clipPath>
</defs>
</svg>
