<svg width="143" height="40" viewBox="0 0 143 40" fill="none" xmlns="http://www.w3.org/2000/svg">
<g id="Frame 1940686009">
<g id="Group 1940686010">
<path id="Vector" d="M26.4613 31.5667H27.1392L26.5043 34.2028C26.4075 34.5902 26.429 34.8915 26.5581 35.0851C26.6872 35.2788 26.924 35.3757 27.279 35.3757C27.6233 35.3757 27.9139 35.2788 28.1398 35.0851C28.3658 34.8915 28.5164 34.5902 28.6133 34.2028L29.2481 31.5667H29.9367L29.2911 34.2674C29.1512 34.8484 28.9038 35.2896 28.5379 35.5801C28.1829 35.8706 27.7094 36.0213 27.1284 36.0213C26.5474 36.0213 26.1493 35.8814 25.9341 35.5909C25.7189 35.3003 25.6758 34.8592 25.8157 34.2782L26.4613 31.5667ZM29.8399 35.9029L30.9159 31.3945L32.9602 34.0414C33.014 34.1168 33.0678 34.1921 33.1216 34.2782C33.1754 34.3642 33.2292 34.4611 33.2938 34.5687L34.0147 31.5667H34.6495L33.5735 36.0643L31.4861 33.3636L31.3247 33.1376C31.2709 33.0515 31.2279 32.9762 31.1956 32.8794L30.4747 35.8921H29.8399V35.9029ZM34.5957 35.9029L35.6287 31.5667H36.3173L35.2843 35.9029H34.5957ZM36.2635 35.9029L37.2964 31.5667H39.6528L39.5129 32.1692H37.8452L37.5869 33.2452H39.2547L39.1041 33.8585H37.4363L36.9521 35.8921H36.2635V35.9029ZM39.3838 35.9029L40.4168 31.5667H41.1054L40.0725 35.9029H39.3838ZM41.0516 35.9029L42.0845 31.5667H44.4409L44.3011 32.1692H42.6333L42.3751 33.256H44.0428L43.8922 33.8693H42.2244L41.8909 35.2681H43.5586L43.408 35.9029H41.0516ZM44.2042 35.9029L45.2372 31.5667H46.1625C46.7651 31.5667 47.1847 31.599 47.4107 31.6635C47.6366 31.7281 47.8303 31.8249 47.9809 31.9756C48.1746 32.1692 48.3037 32.4167 48.3575 32.7072C48.4113 33.0085 48.3898 33.3528 48.3037 33.7294C48.2069 34.1168 48.067 34.4503 47.8733 34.7516C47.6797 35.0529 47.4322 35.2896 47.1417 35.4833C46.9265 35.6339 46.6898 35.7307 46.4315 35.7953C46.184 35.8599 45.8074 35.8921 45.3125 35.8921H44.2042V35.9029ZM45.0435 35.2573H45.6245C45.9366 35.2573 46.184 35.2358 46.3562 35.1927C46.5284 35.1497 46.679 35.0744 46.8189 34.9776C47.0125 34.8377 47.1739 34.6655 47.3031 34.4503C47.4322 34.2459 47.529 33.9984 47.5936 33.7187C47.6581 33.4389 47.6797 33.2022 47.6474 32.9977C47.6151 32.7933 47.5398 32.6104 47.4107 32.4705C47.3138 32.3629 47.1955 32.2984 47.0341 32.2553C46.8727 32.2123 46.6252 32.1908 46.2701 32.1908H45.7752L45.0435 35.2573ZM51.4671 33.9554L51.0044 35.9029H50.3588L51.3918 31.5667H52.4355C52.7475 31.5667 52.9627 31.5882 53.1026 31.6205C53.2425 31.6528 53.3501 31.7066 53.4362 31.7926C53.5438 31.8895 53.6191 32.0294 53.6514 32.2015C53.6836 32.3737 53.6729 32.5566 53.6298 32.761C53.576 32.9655 53.5007 33.1591 53.3824 33.3313C53.264 33.5035 53.1241 33.6433 52.9735 33.7402C52.8444 33.8155 52.7045 33.88 52.5539 33.9123C52.4032 33.9446 52.1665 33.9661 51.8652 33.9661H51.4671V33.9554ZM51.65 33.3743H51.8222C52.1988 33.3743 52.4678 33.3313 52.6184 33.2452C52.769 33.1591 52.8659 33.0085 52.9197 32.7933C52.9735 32.5674 52.9412 32.3952 52.8336 32.3091C52.7152 32.2123 52.4785 32.1692 52.1235 32.1692H51.9513L51.65 33.3743ZM55.9647 35.9029L55.7495 34.7839H54.071L53.3178 35.9029H52.5969L55.7172 31.3945L56.6856 35.9029H55.9647ZM54.4799 34.1921H55.6527L55.459 33.2022C55.4482 33.1376 55.4375 33.0623 55.4375 32.987C55.4267 32.9009 55.4267 32.8148 55.4267 32.718C55.3837 32.8148 55.3406 32.9009 55.2868 32.987C55.2438 33.0731 55.2008 33.1484 55.1577 33.2129L54.4799 34.1921ZM57.6755 35.9029L58.149 33.9231L57.2882 31.5774H58.0091L58.5471 33.0515C58.5578 33.0946 58.5686 33.1376 58.5901 33.2022C58.6116 33.2667 58.6224 33.3313 58.6439 33.3959L58.773 33.2022C58.8161 33.1376 58.8591 33.0838 58.9021 33.03L60.161 31.5774H60.8497L58.8376 33.9123L58.3642 35.8921H57.6755V35.9029ZM64.2283 33.7617C64.2283 33.7294 64.239 33.6326 64.2605 33.4819C64.2713 33.3528 64.2821 33.256 64.2928 33.1699C64.2498 33.2667 64.2067 33.3636 64.1529 33.4712C64.0991 33.568 64.0346 33.6756 63.9593 33.7725L62.3022 36.0858L61.7643 33.7294C61.7427 33.6326 61.7212 33.5357 61.7105 33.4497C61.6997 33.3636 61.6889 33.2667 61.6889 33.1807C61.6674 33.2667 61.6351 33.3636 61.6029 33.4712C61.5706 33.568 61.5275 33.6756 61.4737 33.7832L60.5054 35.9137H59.8705L61.9472 31.3945L62.539 34.1275C62.5497 34.1706 62.5605 34.2459 62.5712 34.3427C62.582 34.4396 62.6035 34.5687 62.625 34.7193C62.7004 34.5902 62.7972 34.4396 62.9263 34.2459C62.9586 34.1921 62.9909 34.1598 63.0016 34.1275L64.8738 31.3945L64.8093 35.9137H64.1745L64.2283 33.7617ZM65.3688 35.9029L66.4017 31.5667H68.7581L68.6183 32.1692H66.9505L66.6923 33.256H68.36L68.2094 33.8693H66.5416L66.2081 35.2681H67.8758L67.7252 35.9029H65.3688ZM68.5107 35.9029L69.5866 31.3945L71.631 34.0414C71.6848 34.1168 71.7386 34.1921 71.7924 34.2782C71.8462 34.3642 71.9 34.4611 71.9646 34.5687L72.6855 31.5667H73.3203L72.2443 36.0643L70.1569 33.3636L69.9955 33.1376C69.9417 33.0515 69.8987 32.9762 69.8664 32.8794L69.1455 35.8921H68.5107V35.9029ZM75.5153 32.1585L74.6222 35.8921H73.9336L74.8267 32.1585H73.7077L73.8475 31.5559H76.7742L76.6343 32.1585H75.5153ZM76.2362 35.0313L76.8495 34.7731C76.8603 34.9668 76.9141 35.1174 77.0324 35.2143C77.1508 35.3111 77.3122 35.3649 77.5274 35.3649C77.7318 35.3649 77.904 35.3111 78.0546 35.1927C78.2053 35.0744 78.3021 34.9238 78.3451 34.7301C78.4097 34.4718 78.2591 34.2459 77.8932 34.0522C77.8394 34.0199 77.8071 33.9984 77.7749 33.9876C77.366 33.7509 77.1078 33.5465 77.0002 33.3528C76.8926 33.1591 76.871 32.9332 76.9356 32.6642C77.0217 32.3091 77.2046 32.0294 77.4951 31.8034C77.7856 31.5882 78.1084 31.4698 78.4958 31.4698C78.8078 31.4698 79.0553 31.5344 79.2382 31.6528C79.4211 31.7711 79.518 31.954 79.5502 32.18L78.9477 32.4598C78.8939 32.3199 78.8293 32.223 78.7433 32.1585C78.6572 32.0939 78.5496 32.0616 78.4205 32.0616C78.2375 32.0616 78.0761 32.1154 77.947 32.2123C77.8179 32.3091 77.7318 32.4382 77.6888 32.6104C77.6242 32.8686 77.8071 33.1161 78.2268 33.3421C78.2591 33.3636 78.2806 33.3743 78.3021 33.3851C78.6679 33.5788 78.9154 33.7725 79.023 33.9661C79.1306 34.1598 79.1521 34.3858 79.0876 34.6763C78.9907 35.0851 78.7863 35.4079 78.4743 35.6554C78.1622 35.8921 77.7964 36.0213 77.366 36.0213C77.0109 36.0213 76.7312 35.9352 76.5375 35.763C76.3223 35.5909 76.2255 35.3434 76.2362 35.0313ZM81.3041 35.9029L82.337 31.5667H83.0257L81.9927 35.9029H81.3041ZM82.9826 35.9029L84.0586 31.3945L86.103 34.0414C86.1568 34.1168 86.2106 34.1921 86.2644 34.2782C86.3182 34.3642 86.372 34.4611 86.4365 34.5687L87.1574 31.5667H87.7923L86.7163 36.0643L84.6289 33.3636L84.4675 33.1376C84.4137 33.0515 84.3706 32.9762 84.3384 32.8794L83.6175 35.8921H82.9826V35.9029ZM89.9873 32.1585L89.0942 35.8921H88.4056L89.2986 32.1585H88.1796L88.3195 31.5559H91.2462L91.1063 32.1585H89.9873ZM90.7297 35.9029L91.7626 31.5667H94.1298L93.9899 32.1692H92.3221L92.0639 33.256H93.7317L93.581 33.8693H91.9133L91.5797 35.2681H93.2475L93.0969 35.9029H90.7297ZM94.9798 33.9554L94.5171 35.8921H93.8716L94.9045 31.5559H95.8621C96.1419 31.5559 96.3571 31.5774 96.497 31.6097C96.6476 31.642 96.766 31.7066 96.852 31.7926C96.9596 31.9002 97.0242 32.0294 97.0565 32.2015C97.0887 32.3629 97.078 32.5458 97.0349 32.7503C96.9489 33.0946 96.809 33.3743 96.5938 33.568C96.3786 33.7617 96.1096 33.88 95.7868 33.9231L96.766 35.8921H95.9912L95.0551 33.9554H94.9798ZM95.152 33.4066H95.2811C95.6469 33.4066 95.8944 33.3636 96.0343 33.2775C96.1742 33.1914 96.271 33.0408 96.3248 32.8148C96.3786 32.5781 96.3571 32.406 96.2495 32.3091C96.1419 32.2123 95.9159 32.1585 95.5716 32.1585H95.4425L95.152 33.4066ZM97.1856 35.9029L98.2185 31.5667H100.575L100.435 32.1692H98.7673L98.509 33.2452H100.177L100.026 33.8585H98.3584L97.8742 35.8921H97.1856V35.9029ZM102.867 35.9029L102.652 34.7839H100.973L100.22 35.9029H99.4989L102.619 31.3945L103.588 35.9029H102.867ZM101.371 34.1921H102.544L102.35 33.2022C102.34 33.1376 102.329 33.0623 102.329 32.987C102.318 32.9009 102.318 32.8148 102.318 32.718C102.275 32.8148 102.232 32.9009 102.178 32.987C102.135 33.0731 102.092 33.1484 102.049 33.2129L101.371 34.1921ZM108.064 32.6212C107.913 32.449 107.73 32.3199 107.537 32.2446C107.343 32.1585 107.128 32.1154 106.88 32.1154C106.418 32.1154 106.009 32.2661 105.643 32.5674C105.277 32.8686 105.04 33.2667 104.922 33.7509C104.814 34.2136 104.857 34.601 105.073 34.913C105.277 35.2143 105.6 35.3649 106.03 35.3649C106.278 35.3649 106.525 35.3219 106.773 35.225C107.02 35.1389 107.268 34.9991 107.526 34.8162L107.332 35.6124C107.117 35.7523 106.891 35.8491 106.654 35.9137C106.418 35.9782 106.181 36.0105 105.923 36.0105C105.6 36.0105 105.309 35.9567 105.062 35.8491C104.814 35.7415 104.61 35.5801 104.448 35.3649C104.287 35.1605 104.19 34.913 104.147 34.6332C104.104 34.3535 104.115 34.0522 104.201 33.7294C104.276 33.4066 104.405 33.1161 104.578 32.8363C104.75 32.5566 104.976 32.3091 105.234 32.1047C105.492 31.8895 105.772 31.7281 106.073 31.6205C106.374 31.5129 106.676 31.4591 106.988 31.4591C107.235 31.4591 107.461 31.4914 107.676 31.5667C107.881 31.642 108.075 31.7496 108.247 31.9002L108.064 32.6212ZM108.128 35.9029L109.161 31.5667H111.518L111.378 32.1692H109.71L109.452 33.256H111.12L110.969 33.8693H109.301L108.968 35.2681H110.635L110.485 35.9029H108.128Z" fill="#3D3D3C"/>
<path id="Vector_2" d="M95.6037 27.7898H90.8802L97.4436 4.08594H102.167L95.6037 27.7898ZM93.1505 4.82836C92.8277 4.37645 92.322 4.1505 91.6333 4.1505H65.6807L64.4002 8.79874H88.0073L86.63 13.759H67.7465V13.7483H63.023L59.1064 27.8974H63.83L66.4554 18.4073H87.6845C88.3516 18.4073 88.9757 18.1813 89.5567 17.7294C90.1377 17.2775 90.5251 16.718 90.708 16.0509L93.3334 6.5607C93.5378 5.85055 93.4733 5.28028 93.1505 4.82836ZM56.3519 26.305C56.0937 27.2411 55.2329 27.8974 54.2645 27.8974H29.915C29.2479 27.8974 28.753 27.6715 28.4302 27.2195C28.1074 26.7676 28.0321 26.2081 28.2257 25.541L34.1651 4.1505H38.8887L33.5841 23.2599H52.4784L57.783 4.1505H62.5065L56.3519 26.305Z" fill="#70706E"/>
<path id="Vector_3" d="M110.323 4.12939L116.295 16.0082L103.738 27.8871L110.323 4.12939Z" fill="#098041"/>
<path id="Vector_4" d="M106.127 4.12939L112.098 16.0082L99.5308 27.8871L106.127 4.12939Z" fill="#E97626"/>
</g>
</g>
</svg>
