<svg width="102" height="102" viewBox="0 0 102 102" fill="none" xmlns="http://www.w3.org/2000/svg">
<g id="Group 1940685985">
<g id="Rectangle 8" filter="url(#filter0_d_2891_40)">
<rect x="22.7998" y="22.8" width="56" height="56" rx="8.96" fill="white"/>
</g>
<g id="&#230;&#168;&#161;&#230;&#139;&#159;&#231;&#187;&#147;&#231;&#174;&#151; 1">
<path id="Vector" d="M55.5468 44.1805C59.5827 44.1805 62.5659 42.775 63.0937 41.375C63.0937 39.6195 59.5854 38.3945 55.5468 38.3945C51.3358 38.3945 47.8276 39.6223 47.8276 41.375C48.3554 42.7777 51.3386 44.1805 55.5468 44.1805ZM55.5468 55.5855C55.019 55.5855 54.319 55.5855 53.7913 55.4105V59.2687H55.5468C59.7577 59.2687 63.0937 58.216 63.0937 56.8105V53.6523C61.3382 54.8828 58.7077 55.5855 55.5468 55.5855ZM55.5468 50.4969C55.019 50.4969 54.319 50.4969 53.7913 50.3219V54.1801C54.319 54.1801 55.019 54.3551 55.5468 54.3551C59.5827 54.3551 62.5659 52.9496 63.0937 51.5496V48.5691C61.3382 49.7941 58.7077 50.4969 55.5468 50.4969Z" fill="#FF855B"/>
<path id="Vector_2" d="M55.5468 45.4083C52.2136 45.4083 49.5804 44.5305 47.8276 43.4778V45.4083C51.3358 45.7583 54.4968 46.9887 54.6718 49.2665H55.3745C59.4104 49.2665 62.3937 47.861 62.9214 46.461V43.4805C61.3382 44.5305 58.7077 45.4083 55.5468 45.4083Z" fill="#FF855B"/>
<path id="Vector_3" d="M46.0776 52.0774C50.1136 52.0774 53.0968 50.672 53.6245 49.272C53.6245 47.6915 50.2913 46.2915 46.0776 46.2915C42.0417 46.4665 38.5308 47.697 38.5308 49.272C39.0585 50.847 42.039 52.0774 46.0776 52.0774Z" fill="#FF855B"/>
<path id="Vector_4" d="M46.0776 57.691C50.1136 57.691 53.0968 56.2855 53.6245 54.8855V51.7246C52.044 52.9523 49.4136 53.6551 46.0776 53.6551C42.7444 53.6551 40.2862 52.9551 38.5308 51.7246V54.8828C39.0585 56.2855 42.039 57.691 46.0776 57.691Z" fill="#FF855B"/>
<path id="Vector_5" d="M46.0776 59.2688C42.9194 59.2688 40.1112 58.5661 38.5308 57.3384V60.4993C38.5308 61.9048 42.039 62.9575 46.0776 62.9575C50.1136 62.9575 53.6245 61.9048 53.6245 60.4993V57.3411C52.0386 58.3911 49.4081 59.2688 46.0776 59.2688Z" fill="#FF855B"/>
</g>
</g>
<defs>
<filter id="filter0_d_2891_40" x="-0.00019455" y="4.95911e-05" width="101.6" height="101.6" filterUnits="userSpaceOnUse" color-interpolation-filters="sRGB">
<feFlood flood-opacity="0" result="BackgroundImageFix"/>
<feColorMatrix in="SourceAlpha" type="matrix" values="0 0 0 0 0 0 0 0 0 0 0 0 0 0 0 0 0 0 127 0" result="hardAlpha"/>
<feMorphology radius="6" operator="dilate" in="SourceAlpha" result="effect1_dropShadow_2891_40"/>
<feOffset/>
<feGaussianBlur stdDeviation="8.4"/>
<feComposite in2="hardAlpha" operator="out"/>
<feColorMatrix type="matrix" values="0 0 0 0 0.540704 0 0 0 0 0.754808 0 0 0 0 0.669166 0 0 0 0.15 0"/>
<feBlend mode="normal" in2="BackgroundImageFix" result="effect1_dropShadow_2891_40"/>
<feBlend mode="normal" in="SourceGraphic" in2="effect1_dropShadow_2891_40" result="shape"/>
</filter>
</defs>
</svg>
