<svg width="44" height="44" viewBox="0 0 44 44" fill="none" xmlns="http://www.w3.org/2000/svg">
<g id="Group 1940685981">
<g id="Group 6">
<rect id="Rectangle 7" width="44.002" height="44.002" rx="7.04039" fill="#F88C3D"/>
<g id="24gf-thumbsUp2 1">
<path id="Vector" d="M16.5835 18.7773C16.4944 18.7592 16.4036 18.75 16.3127 18.75H11.4377C11.0786 18.7504 10.7344 18.8932 10.4806 19.1471C10.2267 19.401 10.0839 19.7452 10.0835 20.1042V32.5625C10.0839 32.9216 10.2267 33.2658 10.4806 33.5196C10.7344 33.7735 11.0786 33.9163 11.4377 33.9167H16.3127C16.4036 33.9167 16.4944 33.9074 16.5835 33.8891V18.7773ZM13.8752 30.6667C13.768 30.6667 13.6633 30.6349 13.5742 30.5754C13.4852 30.5159 13.4157 30.4313 13.3747 30.3323C13.3337 30.2334 13.323 30.1244 13.3439 30.0194C13.3648 29.9143 13.4164 29.8178 13.4921 29.742C13.5679 29.6663 13.6644 29.6147 13.7695 29.5938C13.8746 29.5729 13.9835 29.5836 14.0824 29.6246C14.1814 29.6656 14.266 29.735 14.3255 29.8241C14.3851 29.9132 14.4168 30.0179 14.4168 30.125C14.4168 30.2687 14.3598 30.4065 14.2582 30.5081C14.1566 30.6096 14.0188 30.6667 13.8752 30.6667ZM34.7034 21.2615L33.0392 32.0794C32.9605 32.591 32.7013 33.0574 32.3085 33.3944C31.9157 33.7314 31.4153 33.9167 30.8977 33.9167H20.3752C19.877 33.9181 19.3836 33.8206 18.9234 33.63C18.4632 33.4393 18.0453 33.1593 17.6941 32.8061C17.6848 32.797 17.6758 32.7875 17.6668 32.7782V19.4881C18.3043 18.4773 19.1173 17.6064 19.8027 16.8727L19.955 16.709C21.6955 14.8412 21.8334 13.309 21.8334 11.5C21.8334 10.8463 22.1391 10.5013 22.3956 10.3273C22.6923 10.1257 23.0241 10.0834 23.2502 10.0834C23.7833 10.0834 24.5946 10.3239 25.2728 10.9991C25.7947 11.5185 26.4168 12.4824 26.4168 14.1251C26.4168 14.8758 26.2345 15.7162 26.0814 16.2883C25.8834 17.0301 25.6102 17.7928 25.3126 18.4357C25.2927 18.4774 25.2839 18.5235 25.2868 18.5696C25.2898 18.6157 25.3045 18.6603 25.3295 18.6991C25.3534 18.7372 25.3866 18.7685 25.4261 18.79C25.4656 18.8115 25.5099 18.8225 25.5548 18.8218H25.5574L32.5437 18.7654H32.5606C32.873 18.7655 33.1817 18.833 33.4655 18.9635C33.7493 19.094 34.0015 19.2843 34.2049 19.5214C34.4083 19.7585 34.558 20.0367 34.6438 20.3371C34.7296 20.6374 34.7494 20.9528 34.7019 21.2615H34.7034Z" fill="white"/>
</g>
</g>
</g>
</svg>
