<svg width="102" height="102" viewBox="0 0 102 102" fill="none" xmlns="http://www.w3.org/2000/svg">
<g id="Group 1940685985">
<g id="Rectangle 8" filter="url(#filter0_d_2891_67)">
<rect x="22.7998" y="22.8" width="56" height="56" rx="8.96" fill="white"/>
</g>
<g id="&#229;&#133;&#133;&#229;&#128;&#188;&#228;&#184;&#173;&#229;&#191;&#131; 1">
<path id="Vector" d="M58.5356 36.8004H42.6451C42.3018 36.7946 41.9608 36.8566 41.6415 36.9826C41.3222 37.1087 41.0308 37.2964 40.784 37.535C40.5373 37.7737 40.3399 38.0587 40.2033 38.3736C40.0667 38.6886 39.9935 39.0273 39.9878 39.3706V62.2294C39.9935 62.5726 40.0667 62.9114 40.2033 63.2263C40.3399 63.5413 40.5373 63.8262 40.784 64.0649C41.0308 64.3036 41.3222 64.4913 41.6415 64.6173C41.9608 64.7434 42.3018 64.8053 42.6451 64.7995H58.5356C60.0038 64.7995 61.1944 63.6492 61.1944 62.2294V39.3706C61.1944 37.9508 60.0038 36.8004 58.5356 36.8004ZM48.2501 38.8962H52.9467C53.0788 38.9036 53.2032 38.9613 53.2941 39.0575C53.385 39.1536 53.4357 39.281 53.4357 39.4133C53.4357 39.5457 53.385 39.673 53.2941 39.7692C53.2032 39.8654 53.0788 39.923 52.9467 39.9304H48.2501C48.1179 39.923 47.9936 39.8654 47.9027 39.7692C47.8117 39.673 47.7611 39.5457 47.7611 39.4133C47.7611 39.281 47.8117 39.1536 47.9027 39.0575C47.9936 38.9613 48.1179 38.9036 48.2501 38.8962ZM50.5911 62.9135C50.1683 62.9135 49.755 62.7881 49.4034 62.5532C49.0519 62.3183 48.7779 61.9844 48.6161 61.5938C48.4543 61.2031 48.4119 60.7733 48.4944 60.3586C48.5769 59.9439 48.7805 59.563 49.0795 59.2641C49.3785 58.9651 49.7594 58.7615 50.1741 58.679C50.5887 58.5965 51.0186 58.6388 51.4092 58.8006C51.7998 58.9624 52.1337 59.2365 52.3686 59.588C52.6035 59.9396 52.7289 60.3529 52.7289 60.7757C52.7285 61.3425 52.5031 61.886 52.1023 62.2868C51.7015 62.6877 51.158 62.913 50.5911 62.9135ZM58.1274 56.4469C58.116 56.717 57.9981 56.9716 57.7994 57.1548C57.6007 57.3381 57.3375 57.4351 57.0673 57.4246H44.1133C43.8433 57.4351 43.5803 57.338 43.3818 57.1547C43.1834 56.9714 43.0658 56.7168 43.0549 56.4469V42.6974C43.0658 42.4275 43.1834 42.1729 43.3818 41.9896C43.5803 41.8063 43.8433 41.7092 44.1133 41.7197H57.0673C57.3375 41.7092 57.6007 41.8062 57.7994 41.9895C57.9981 42.1728 58.116 42.4274 58.1274 42.6974V56.4469Z" fill="#0095FF"/>
</g>
</g>
<defs>
<filter id="filter0_d_2891_67" x="-0.00019455" y="4.95911e-05" width="101.6" height="101.6" filterUnits="userSpaceOnUse" color-interpolation-filters="sRGB">
<feFlood flood-opacity="0" result="BackgroundImageFix"/>
<feColorMatrix in="SourceAlpha" type="matrix" values="0 0 0 0 0 0 0 0 0 0 0 0 0 0 0 0 0 0 127 0" result="hardAlpha"/>
<feMorphology radius="6" operator="dilate" in="SourceAlpha" result="effect1_dropShadow_2891_67"/>
<feOffset/>
<feGaussianBlur stdDeviation="8.4"/>
<feComposite in2="hardAlpha" operator="out"/>
<feColorMatrix type="matrix" values="0 0 0 0 0.540704 0 0 0 0 0.754808 0 0 0 0 0.669166 0 0 0 0.15 0"/>
<feBlend mode="normal" in2="BackgroundImageFix" result="effect1_dropShadow_2891_67"/>
<feBlend mode="normal" in="SourceGraphic" in2="effect1_dropShadow_2891_67" result="shape"/>
</filter>
</defs>
</svg>
