<svg width="38" height="38" viewBox="0 0 38 38" fill="none" xmlns="http://www.w3.org/2000/svg">
<g id="&#228;&#186;&#146;&#232;&#129;&#148;&#231;&#189;&#145; 2">
<path id="Vector" d="M19 0.175781C29.3816 0.175781 37.8242 8.62278 37.8242 19C37.8242 29.3816 29.3816 37.8242 19 37.8242C8.6228 37.8242 0.175781 29.3772 0.175781 19C0.175781 8.61837 8.61837 0.175781 19 0.175781ZM11.1973 20.1221C11.3219 24.0262 12.0855 27.6201 13.2578 30.3896C14.4259 33.1489 16.0183 35.1298 17.8281 35.7393L18.0596 35.8174V19.9404H11.1914L11.1973 20.1221ZM19.9443 35.8174L20.1768 35.7393C21.9865 35.1297 23.579 33.1489 24.7471 30.3896C25.9194 27.6201 26.682 24.0262 26.8066 20.1221L26.8125 19.9404H19.9443V35.8174ZM2.10059 20.1279C2.55718 27.0116 7.14072 32.7841 13.3926 34.9814L13.958 35.1807L13.5898 34.707C11.136 31.5576 9.48514 26.2845 9.30859 20.1113L9.30371 19.9404H2.08887L2.10059 20.1279ZM28.6875 20.1113C28.511 26.2844 26.86 31.5576 24.4062 34.707L24.0381 35.1797L24.6035 34.9814C30.8595 32.7841 35.4468 27.0116 35.8945 20.1279L35.9072 19.9404H28.6924L28.6875 20.1113ZM13.3965 3.01855C7.14032 5.21593 2.55718 10.9885 2.10059 17.8721L2.08887 18.0596H9.30762L9.3125 17.8887C9.48904 11.7156 11.14 6.4424 13.5938 3.29297L13.9619 2.82031L13.3965 3.01855ZM17.8281 2.26074C16.0183 2.87016 14.4245 4.85096 13.2559 7.61035C12.0829 10.3799 11.3197 13.9738 11.1973 17.8779L11.1924 18.0596H18.0596V2.18262L17.8281 2.26074ZM19.9443 18.0596H26.8125L26.8066 17.8779C26.682 13.9738 25.9194 10.3799 24.7471 7.61035C23.579 4.85109 21.9865 2.87026 20.1768 2.26074L19.9443 2.18262V18.0596ZM24.4102 3.29297C26.864 6.44236 28.5149 11.7155 28.6914 17.8887L28.6963 18.0596H35.9111L35.8994 17.8721C35.4472 10.9883 30.8592 5.21584 24.6074 3.01855L24.042 2.81934L24.4102 3.29297Z" fill="#222020" stroke="white" stroke-width="0.351852"/>
</g>
</svg>
