<svg width="102" height="102" viewBox="0 0 102 102" fill="none" xmlns="http://www.w3.org/2000/svg">
<g id="Group 1940685985">
<g id="Rectangle 8" filter="url(#filter0_d_2891_24)">
<rect x="22.7998" y="22.8" width="56" height="56" rx="8.96" fill="white"/>
</g>
<g id="Frame 1940686008">
<path id="Vector" d="M62.4058 46.6073C63.4126 46.6073 64.2287 47.4234 64.2287 48.4302V61.1906C64.2287 62.1974 63.4126 63.0135 62.4058 63.0135H39.194C38.1872 63.0135 37.3711 62.1974 37.3711 61.1906V46.6073H62.4058ZM57.6662 53.5951H54.7496C54.0784 53.5951 53.5343 54.1392 53.5343 54.8104C53.5343 55.4816 54.0784 56.0257 54.7496 56.0257H57.6662C58.3374 56.0257 58.8815 55.4816 58.8815 54.8104C58.8815 54.1392 58.3374 53.5951 57.6662 53.5951ZM57.0586 38.5864C58.0654 38.5864 58.8815 39.4025 58.8815 40.4093V44.2982H37.3711V40.4093C37.3711 39.4025 38.1872 38.5864 39.194 38.5864H57.0586Z" fill="#47D7AC"/>
</g>
</g>
<defs>
<filter id="filter0_d_2891_24" x="-0.00019455" y="4.95911e-05" width="101.6" height="101.6" filterUnits="userSpaceOnUse" color-interpolation-filters="sRGB">
<feFlood flood-opacity="0" result="BackgroundImageFix"/>
<feColorMatrix in="SourceAlpha" type="matrix" values="0 0 0 0 0 0 0 0 0 0 0 0 0 0 0 0 0 0 127 0" result="hardAlpha"/>
<feMorphology radius="6" operator="dilate" in="SourceAlpha" result="effect1_dropShadow_2891_24"/>
<feOffset/>
<feGaussianBlur stdDeviation="8.4"/>
<feComposite in2="hardAlpha" operator="out"/>
<feColorMatrix type="matrix" values="0 0 0 0 0.540704 0 0 0 0 0.754808 0 0 0 0 0.669166 0 0 0 0.15 0"/>
<feBlend mode="normal" in2="BackgroundImageFix" result="effect1_dropShadow_2891_24"/>
<feBlend mode="normal" in="SourceGraphic" in2="effect1_dropShadow_2891_24" result="shape"/>
</filter>
</defs>
</svg>
