<svg width="38" height="32" viewBox="0 0 38 32" fill="none" xmlns="http://www.w3.org/2000/svg">
<g id="&#229;&#136;&#146;&#232;&#189;&#172;3 1">
<path id="Vector" d="M33.7382 0H2.36237C1.05768 0 0 1.04501 0 2.3307V28.0697C0 29.3554 1.05768 30.4004 2.36237 30.4004H20.0263C20.5076 30.4004 20.9003 30.0078 20.9003 29.5264C20.9003 29.0451 20.5076 28.6524 20.0263 28.6524H2.95771C2.30537 28.6524 1.77336 28.1331 1.77336 27.4871V20.267H11.4002C14.1995 20.267 16.4669 17.9996 16.4669 15.2002C16.4669 12.4008 14.1995 10.1335 11.4002 10.1335H1.77336V2.91338C1.77336 2.26737 2.30537 1.74803 2.95771 1.74803H33.1491C33.8015 1.74803 34.3335 2.26737 34.3335 2.91338V14.3262C34.3335 14.8075 34.7262 15.2002 35.2075 15.2002H35.2328C35.7142 15.2002 36.1068 14.8075 36.1068 14.3262V2.3307C36.1005 1.04501 35.0428 0 33.7382 0ZM1.90003 12.0335H11.4002C13.1482 12.0335 14.5669 13.4522 14.5669 15.2002C14.5669 16.9482 13.1482 18.3669 11.4002 18.3669H1.90003V12.0335Z" fill="#222020"/>
<path id="Vector_2" d="M10.7666 15.2C10.7666 15.452 10.8667 15.6936 11.0449 15.8718C11.223 16.0499 11.4647 16.15 11.7166 16.15C11.9686 16.15 12.2102 16.0499 12.3884 15.8718C12.5665 15.6936 12.6666 15.452 12.6666 15.2C12.6666 14.9481 12.5665 14.7064 12.3884 14.5283C12.2102 14.3501 11.9686 14.25 11.7166 14.25C11.4647 14.25 11.223 14.3501 11.0449 14.5283C10.8667 14.7064 10.7666 14.9481 10.7666 15.2Z" fill="#222020"/>
<path id="Vector_3" d="M37.0501 20.3179H26.6253L29.3993 17.5438C29.773 17.1702 29.773 16.5685 29.3993 16.2012C29.0256 15.8275 28.424 15.8275 28.0566 16.2012L23.6866 20.5712C23.6612 20.5965 23.6422 20.6219 23.6169 20.6472C23.4712 20.8119 23.3826 21.0336 23.3826 21.2742C23.3826 21.7999 23.8069 22.2242 24.3326 22.2242H37.0501C37.5758 22.2242 38.0001 21.7999 38.0001 21.2742C38.0001 20.7422 37.5758 20.3179 37.0501 20.3179ZM37.0501 24.7196H24.3389C23.8132 24.7196 23.3889 25.1439 23.3889 25.6696C23.3889 26.1953 23.8132 26.6196 24.3389 26.6196H34.7637L31.9834 29.4C31.6097 29.7737 31.6097 30.3754 31.9834 30.7427C32.357 31.1164 32.9587 31.1164 33.326 30.7427L37.6961 26.3726C37.7214 26.3473 37.7404 26.322 37.7658 26.2966C37.9114 26.132 38.0001 25.9103 38.0001 25.6696C38.0001 25.1503 37.5758 24.7196 37.0501 24.7196Z" fill="#222020"/>
</g>
</svg>
