<svg width="50" height="50" viewBox="0 0 50 50" fill="none" xmlns="http://www.w3.org/2000/svg">
<g id="Group 928">
<circle id="Ellipse 58" opacity="0.3" cx="25" cy="25" r="25" fill="white"/>
<circle id="Ellipse 59" cx="25" cy="25" r="16" fill="white"/>
<g id="lightning_fill">
<path id="Vector 29" d="M24.5 26.8H23.1299C21.7214 26.8 21.0172 26.8 20.7223 26.3385C20.4274 25.8769 20.7232 25.2379 21.3149 23.9597L24.0463 18.0601C24.4205 17.2518 24.6075 16.8477 24.8038 16.8909C25 16.9341 25 17.3795 25 18.2701V22.7C25 22.9357 25 23.0536 25.0732 23.1268C25.1464 23.2 25.2643 23.2 25.5 23.2H26.8701C28.2786 23.2 28.9828 23.2 29.2777 23.6615C29.5726 24.1231 29.2768 24.7621 28.6851 26.0402L25.9537 31.9399C25.5795 32.7482 25.3925 33.1523 25.1962 33.1091C25 33.0659 25 32.6205 25 31.7299V27.3C25 27.0643 25 26.9464 24.9268 26.8732C24.8536 26.8 24.7357 26.8 24.5 26.8Z" fill="#BA1819"/>
</g>
</g>
</svg>
