<svg width="36" height="34" viewBox="0 0 36 34" fill="none" xmlns="http://www.w3.org/2000/svg">
<g id="&#229;&#184;&#129;&#231;&#167;&#141;2 1">
<path id="Vector" d="M18 15.2542C13.0698 15.2542 8.56678 14.5342 5.32678 13.2224C1.89152 11.8373 0 9.84813 0 7.62712C0 5.4061 1.89152 3.41695 5.32678 2.03186C8.57288 0.719999 13.0759 0 18 0C22.9241 0 27.4332 0.719999 30.6732 2.03186C34.1085 3.41695 36 5.4061 36 7.62712C36 9.84813 34.1085 11.8373 30.6732 13.2224C27.4332 14.5342 22.9302 15.2542 18 15.2542ZM18 1.83051C13.3017 1.83051 9.04271 2.5078 6.01017 3.72814C3.35593 4.80203 1.83051 6.22373 1.83051 7.62712C1.83051 9.03051 3.35593 10.4522 6.01017 11.5261C9.04271 12.7464 13.3017 13.4237 18 13.4237C22.6983 13.4237 26.9573 12.7464 29.9898 11.5261C32.6441 10.4522 34.1695 9.03051 34.1695 7.62712C34.1695 6.22373 32.6441 4.80203 29.9898 3.72814C26.9573 2.5078 22.6983 1.83051 18 1.83051ZM18 24.1627C13.0698 24.1627 8.56678 23.4427 5.32678 22.1308C1.89152 20.7458 0 18.7566 0 16.5356C0 16.0292 0.408814 15.6203 0.915254 15.6203C1.42169 15.6203 1.83051 16.0292 1.83051 16.5356C1.83051 17.939 3.35593 19.3607 6.01017 20.4346C9.04271 21.6549 13.3017 22.3322 18 22.3322C22.6983 22.3322 26.9573 21.6549 29.9898 20.4346C32.6441 19.3607 34.1695 17.939 34.1695 16.5356C34.1695 16.0292 34.5783 15.6203 35.0847 15.6203C35.5912 15.6203 36 16.0292 36 16.5356C36 18.7566 34.1085 20.7458 30.6732 22.1308C27.4332 23.4427 22.9302 24.1627 18 24.1627ZM18 33.0712C13.0698 33.0712 8.56678 32.3512 5.32678 31.0393C1.89152 29.6542 0 27.6651 0 25.4441C0 24.9376 0.408814 24.5288 0.915254 24.5288C1.42169 24.5288 1.83051 24.9376 1.83051 25.4441C1.83051 26.8475 3.35593 28.2692 6.01017 29.3431C9.04271 30.5634 13.3017 31.2407 18 31.2407C22.6983 31.2407 26.9573 30.5634 29.9898 29.3431C32.6441 28.2692 34.1695 26.8475 34.1695 25.4441C34.1695 24.9376 34.5783 24.5288 35.0847 24.5288C35.5912 24.5288 36 24.9376 36 25.4441C36 27.6651 34.1085 29.6542 30.6732 31.0393C27.4332 32.3512 22.9302 33.0712 18 33.0712Z" fill="#222020"/>
</g>
</svg>
