<svg width="48" height="48" viewBox="0 0 48 48" fill="none" xmlns="http://www.w3.org/2000/svg">
<g id="&#229;&#156;&#168;&#231;&#186;&#191;&#229;&#149;&#134;&#229;&#186;&#151; 1" clip-path="url(#clip0_2705_19492)">
<path id="Vector" d="M15.4842 3.09668H17.0326V4.64505H15.4842V3.09668ZM10.065 3.09668H14.7101V4.64505H10.0649L10.065 3.09668ZM16.2584 43.7418C16.2584 42.2476 15.043 41.0322 13.5488 41.0322C12.0546 41.0322 10.8392 42.2476 10.8392 43.7418C10.8392 45.236 12.0546 46.4514 13.5488 46.4514C15.043 46.4514 16.2584 45.236 16.2584 43.7418ZM13.5486 44.903C12.9083 44.903 12.3874 44.382 12.3874 43.7418C12.3874 43.1016 12.9085 42.5806 13.5486 42.5806C14.1888 42.5806 14.7099 43.1016 14.7099 43.7418C14.7099 44.382 14.1889 44.903 13.5486 44.903Z" fill="#222020"/>
<path id="Vector_2" d="M47.0273 28.4144C46.9006 28.136 46.7179 27.8867 46.4907 27.6818C46.2634 27.477 45.9966 27.3211 45.7065 27.2238C45.4166 27.1273 45.11 27.0915 44.8057 27.1186C44.5014 27.1456 44.2058 27.2349 43.9375 27.381L42.239 28.3092L42.4729 27.6141C42.5816 27.2902 42.6119 26.9452 42.5613 26.6074C42.5108 26.2695 42.3807 25.9485 42.1819 25.6708C41.9821 25.3937 41.7195 25.168 41.4156 25.0121C41.1117 24.8562 40.7752 24.7747 40.4336 24.7741C40.003 24.7727 39.582 24.901 39.2254 25.1424C38.8688 25.3838 38.5933 25.7271 38.4347 26.1274L37.4275 28.6451H35.0383L34.9957 28.6242L36.6703 27.7338C37.6783 27.1996 38.1691 26.0189 37.8378 24.928C37.7454 24.6185 37.5906 24.3312 37.3831 24.0837C37.1755 23.8362 36.9195 23.6337 36.6308 23.4888C36.3433 23.3417 36.0287 23.2548 35.7065 23.2335C35.3842 23.2122 35.0609 23.2569 34.7565 23.3649L28.4051 25.5931L27.1123 26.4386L27.0968 2.32247C27.0966 1.04203 26.0546 0 24.7741 0H2.32266C1.04212 0 0 1.04203 0 2.32266V45.6773C0 46.9578 1.04198 48 2.32247 48H24.7741C26.0546 48 27.0966 46.958 27.0966 45.6773V34.8286L34.1572 34.8387L41.9749 33.2748L45.9868 31.3237C46.5055 31.0703 46.9046 30.6243 47.099 30.0808C47.2934 29.5372 47.2677 28.9392 47.0273 28.4144ZM39.8722 26.7027C40.0371 26.2878 40.6635 26.2118 40.9237 26.5742C41.0383 26.7344 41.0692 26.9326 41.0057 27.1192L40.4925 28.6451H39.095L39.8722 26.7027ZM1.54837 2.32266C1.54846 2.11736 1.63004 1.9205 1.77519 1.77532C1.92033 1.63014 2.11718 1.54851 2.32247 1.54838H24.7741C24.8758 1.54842 24.9765 1.5685 25.0705 1.60746C25.1645 1.64643 25.2498 1.70353 25.3217 1.77548C25.3936 1.84744 25.4506 1.93286 25.4895 2.02686C25.5284 2.12085 25.5484 2.22159 25.5484 2.32331L25.5507 6.19355H1.54833L1.54837 2.32266ZM24.7741 46.4514H2.32266C2.11735 46.4513 1.9205 46.3697 1.77534 46.2245C1.63019 46.0793 1.5486 45.8825 1.54852 45.6772V41.032H25.5484V45.6772C25.5483 45.8825 25.4667 46.0794 25.3215 46.2246C25.1763 46.3697 24.9794 46.4514 24.7741 46.4514ZM25.5482 39.4838H1.54837V7.74192H25.5521L25.5645 27.0968H20.9032V25.5484H10.0645V35.6129H20.9032V34.2348L23.856 34.824L25.5484 34.8263V39.4838H25.5482H25.5482ZM19.3548 27.0968V34.0646H11.613V27.0968H19.3548ZM45.3017 29.9364L41.5717 31.7766L34.0047 33.2901H24.0929L20.9032 32.6552V28.6449H26.5734L29.0099 27.0207L35.2691 24.8244C35.3765 24.7864 35.4905 24.7707 35.6042 24.7783C35.7179 24.7858 35.8288 24.8165 35.9302 24.8685C36.0321 24.9197 36.1223 24.9912 36.1955 25.0785C36.2687 25.1658 36.3234 25.2672 36.356 25.3764C36.4123 25.5635 36.402 25.7644 36.3269 25.9447C36.2518 26.1251 36.1165 26.274 35.9441 26.3659L31.6179 28.6661L34.672 30.1935H42.0207L44.6801 28.7404C44.761 28.6949 44.8505 28.6672 44.9429 28.6589C45.0352 28.6506 45.1283 28.662 45.2159 28.6923C45.3042 28.7212 45.3854 28.7682 45.4545 28.8304C45.5235 28.8925 45.5789 28.9683 45.6169 29.053C45.6899 29.2123 45.6978 29.3938 45.639 29.5588C45.5801 29.7238 45.4591 29.8593 45.3018 29.9363L45.3017 29.9364Z" fill="#222020"/>
</g>
<defs>
<clipPath id="clip0_2705_19492">
<rect width="48" height="48" fill="white"/>
</clipPath>
</defs>
</svg>
