<svg width="64" height="64" viewBox="0 0 64 64" fill="none" xmlns="http://www.w3.org/2000/svg">
<g id="Group 6">
<rect id="Rectangle 7" width="64" height="64" rx="10.24" fill="#925CFE"/>
<g id="calendar 1" clip-path="url(#clip0_2884_12535)">
<g id="Group">
<g id="Group_2">
<path id="Vector" d="M23.2005 14.3998C22.5062 14.3998 21.9434 14.9626 21.9434 15.6569V18.1712H24.4576V15.6569C24.4576 14.9626 23.8948 14.3998 23.2005 14.3998Z" fill="white"/>
</g>
</g>
<g id="Group_3">
<g id="Group_4">
<path id="Vector_2" d="M40.8001 14.3998C40.1058 14.3998 39.543 14.9626 39.543 15.6569V18.1712H42.0572V15.6569C42.0573 14.9626 41.4945 14.3998 40.8001 14.3998Z" fill="white"/>
</g>
</g>
<g id="Group_5">
<g id="Group_6">
<path id="Vector_3" d="M45.8285 18.1713H42.0571V23.1999C42.0571 23.8942 41.4942 24.457 40.7999 24.457C40.1056 24.457 39.5427 23.8942 39.5427 23.1999V18.1713H24.457V23.1999C24.457 23.8942 23.8942 24.457 23.1998 24.457C22.5055 24.457 21.9427 23.8942 21.9427 23.1999V18.1713H18.1713C16.0884 18.1713 14.3999 19.8598 14.3999 21.9427V45.8284C14.3999 47.9113 16.0884 49.5999 18.1713 49.5999H45.8285C47.9114 49.5999 49.5999 47.9113 49.5999 45.8284V21.9427C49.5999 19.8598 47.9114 18.1713 45.8285 18.1713ZM47.0856 45.8284C47.0856 46.5228 46.5227 47.0856 45.8284 47.0856H18.1713C17.477 47.0856 16.9142 46.5228 16.9142 45.8284V29.4855H47.0856V45.8284Z" fill="white"/>
</g>
</g>
<g id="Group_7">
<g id="Group_8">
<path id="Vector_4" d="M24.4575 32H21.9432C21.2489 32 20.686 32.5628 20.686 33.2572C20.686 33.9515 21.2489 34.5143 21.9432 34.5143H24.4575C25.1518 34.5143 25.7146 33.9515 25.7146 33.2572C25.7146 32.5628 25.1518 32 24.4575 32Z" fill="white"/>
</g>
</g>
<g id="Group_9">
<g id="Group_10">
<path id="Vector_5" d="M33.2568 32H30.7425C30.0482 32 29.4854 32.5628 29.4854 33.2572C29.4854 33.9515 30.0482 34.5143 30.7425 34.5143H33.2568C33.9511 34.5143 34.514 33.9515 34.514 33.2572C34.514 32.5628 33.9511 32 33.2568 32Z" fill="white"/>
</g>
</g>
<g id="Group_11">
<g id="Group_12">
<path id="Vector_6" d="M42.0571 32H39.5428C38.8485 32 38.2856 32.5628 38.2856 33.2572C38.2856 33.9515 38.8485 34.5143 39.5428 34.5143H42.0571C42.7514 34.5143 43.3142 33.9515 43.3142 33.2572C43.3142 32.5628 42.7513 32 42.0571 32Z" fill="white"/>
</g>
</g>
<g id="Group_13">
<g id="Group_14">
<path id="Vector_7" d="M24.4575 37.0286H21.9432C21.2489 37.0286 20.686 37.5914 20.686 38.2857C20.686 38.9801 21.2489 39.5429 21.9432 39.5429H24.4575C25.1518 39.5429 25.7146 38.9801 25.7146 38.2857C25.7146 37.5914 25.1518 37.0286 24.4575 37.0286Z" fill="white"/>
</g>
</g>
<g id="Group_15">
<g id="Group_16">
<path id="Vector_8" d="M33.2568 37.0286H30.7425C30.0482 37.0286 29.4854 37.5914 29.4854 38.2857C29.4854 38.9801 30.0482 39.5429 30.7425 39.5429H33.2568C33.9511 39.5429 34.514 38.9801 34.514 38.2857C34.514 37.5914 33.9511 37.0286 33.2568 37.0286Z" fill="white"/>
</g>
</g>
<g id="Group_17">
<g id="Group_18">
<path id="Vector_9" d="M42.0571 37.0286H39.5428C38.8485 37.0286 38.2856 37.5914 38.2856 38.2857C38.2856 38.9801 38.8485 39.5429 39.5428 39.5429H42.0571C42.7514 39.5429 43.3142 38.9801 43.3142 38.2857C43.3142 37.5914 42.7513 37.0286 42.0571 37.0286Z" fill="white"/>
</g>
</g>
<g id="Group_19">
<g id="Group_20">
<path id="Vector_10" d="M24.4575 42.0573H21.9432C21.2489 42.0573 20.686 42.6201 20.686 43.3144C20.686 44.0087 21.2489 44.5715 21.9432 44.5715H24.4575C25.1518 44.5715 25.7146 44.0087 25.7146 43.3143C25.7146 42.62 25.1518 42.0573 24.4575 42.0573Z" fill="white"/>
</g>
</g>
<g id="Group_21">
<g id="Group_22">
<path id="Vector_11" d="M33.2568 42.0573H30.7425C30.0482 42.0573 29.4854 42.6201 29.4854 43.3144C29.4854 44.0087 30.0482 44.5716 30.7425 44.5716H33.2568C33.9511 44.5716 34.514 44.0087 34.514 43.3144C34.514 42.6201 33.9511 42.0573 33.2568 42.0573Z" fill="white"/>
</g>
</g>
<g id="Group_23">
<g id="Group_24">
<path id="Vector_12" d="M42.0571 42.0573H39.5428C38.8485 42.0573 38.2856 42.6201 38.2856 43.3144C38.2856 44.0087 38.8485 44.5716 39.5428 44.5716H42.0571C42.7514 44.5716 43.3142 44.0087 43.3142 43.3144C43.3142 42.6201 42.7513 42.0573 42.0571 42.0573Z" fill="white"/>
</g>
</g>
</g>
</g>
<defs>
<clipPath id="clip0_2884_12535">
<rect width="35.2" height="35.2" fill="white" transform="translate(14.3999 14.3998)"/>
</clipPath>
</defs>
</svg>
