<?xml version="1.0" standalone="no"?><!DOCTYPE svg PUBLIC "-//W3C//DTD SVG 1.1//EN" "http://www.w3.org/Graphics/SVG/1.1/DTD/svg11.dtd"><svg t="1767583359226" class="icon" viewBox="0 0 1024 1024" version="1.1" xmlns="http://www.w3.org/2000/svg" p-id="3397" xmlns:xlink="http://www.w3.org/1999/xlink" width="200" height="200"><path d="M195.2 458.24a259.84 259.84 0 0 1 177.92-160c92.16-29.44 47.04-128-34.56-102.72C146.56 249.28 32 395.52 32 586.56 32 736 117.12 832 249.28 832s215.04-79.68 215.04-203.52c0-177.28-168-219.52-269.12-170.24z m527.68 0a259.84 259.84 0 0 1 177.92-160c91.2-29.12 48-128-34.56-102.72-192 54.08-306.56 200-306.56 391.36 0 149.12 85.44 245.12 217.28 245.12S992 752.32 992 628.48c0-176.64-167.04-219.84-269.12-170.24z" fill="#231F20" p-id="3398"></path></svg>