<svg width="38" height="38" viewBox="0 0 38 38" fill="none" xmlns="http://www.w3.org/2000/svg">
<g id="&#230;&#181;&#129;&#233;&#135;&#143;&#231;&#155;&#145;&#230;&#142;&#167; 1">
<path id="Vector" d="M19 38C8.52286 38 0 29.4771 0 19C0 8.52286 8.52286 0 19 0C29.4771 0 38 8.52286 38 19C38 29.4771 29.4771 38 19 38ZM19 1.80952C9.5181 1.80952 1.80952 9.5181 1.80952 19C1.80952 28.4819 9.5181 36.1905 19 36.1905C28.4819 36.1905 36.1905 28.4819 36.1905 19C36.1905 9.5181 28.4819 1.80952 19 1.80952Z" fill="#222020"/>
<path id="Vector_2" d="M19.814 29.8578H19.7054C19.5144 29.8309 19.3367 29.7449 19.1971 29.6118C19.0576 29.4788 18.9632 29.3053 18.9273 29.1159L16.2311 13.0292L13.2454 22.9997C13.1368 23.3797 12.7749 23.6511 12.3768 23.6511H7.23777C6.7311 23.6511 6.33301 23.253 6.33301 22.7463C6.33301 22.2397 6.7311 21.8416 7.23777 21.8416H11.7073L15.6159 8.79491C15.7425 8.37872 16.1406 8.12539 16.5387 8.14349C16.743 8.1573 16.9365 8.23999 17.0877 8.37803C17.2389 8.51608 17.3388 8.70132 17.3711 8.90349L20.194 25.8044L23.0892 19.1997C23.15 19.0643 23.2428 18.9456 23.3596 18.8541C23.4764 18.7625 23.6137 18.7007 23.7598 18.674C23.9058 18.6473 24.0561 18.6564 24.1978 18.7007C24.3394 18.745 24.4682 18.8231 24.573 18.9282L27.4321 21.8416H30.7435C31.2502 21.8416 31.6482 22.2397 31.6482 22.7463C31.6482 23.253 31.2502 23.6511 30.7435 23.6511H27.0521C26.8168 23.6511 26.5816 23.5606 26.4006 23.3797L24.2111 21.154L20.6282 29.333C20.5016 29.6406 20.1578 29.8578 19.814 29.8578Z" fill="#222020"/>
</g>
</svg>
