<svg width="32" height="38" viewBox="0 0 32 38" fill="none" xmlns="http://www.w3.org/2000/svg">
<g id="&#233;&#161;&#185;&#231;&#155;&#174; 1">
<path id="Vector" d="M29.44 0H2.56C1.1456 0 0 1.1456 0 2.56V34.56C0 35.9744 1.1456 37.12 2.56 37.12H29.44C30.8544 37.12 32 35.9744 32 34.56V2.56C32 1.1456 30.8544 0 29.44 0ZM3.2576 1.92H28.7424C29.4784 1.92 30.08 2.5152 30.08 3.2512V11.84H1.92V3.2512C1.92 2.5152 2.5216 1.92 3.2576 1.92ZM28.7424 35.2064H3.2576C2.5216 35.2064 1.92 34.6112 1.92 33.8752V13.76H30.08V33.8752C30.08 34.6112 29.4784 35.2064 28.7424 35.2064Z" fill="#222020"/>
<path id="Vector_2" d="M6.08012 8.00008H9.28012C9.81132 8.00008 10.2401 7.57128 10.2401 7.04008C10.2401 6.50888 9.81132 6.08008 9.28012 6.08008H6.08012C5.54892 6.08008 5.12012 6.50888 5.12012 7.04008C5.12012 7.57128 5.54892 8.00008 6.08012 8.00008ZM13.7601 8.00008H25.9201C26.4513 8.00008 26.8801 7.57128 26.8801 7.04008C26.8801 6.50888 26.4513 6.08008 25.9201 6.08008H13.7601C13.2289 6.08008 12.8001 6.50888 12.8001 7.04008C12.8001 7.57128 13.2289 8.00008 13.7601 8.00008ZM22.0097 19.2513C21.8177 19.0081 21.5233 18.8673 21.2161 18.8737C20.9089 18.8801 20.6209 19.0401 20.4481 19.2961L15.7889 26.1761L11.4817 22.6753C11.2769 22.5089 11.0081 22.4321 10.7457 22.4705C10.4833 22.5089 10.2465 22.6561 10.0929 22.8737L5.61292 29.2737C5.31212 29.7089 5.41452 30.3041 5.84972 30.6113C6.01612 30.7265 6.20812 30.7841 6.40012 30.7841C6.70092 30.7841 7.00172 30.6433 7.18092 30.3681L11.0721 24.8129L15.3921 28.3201C15.5969 28.4929 15.8657 28.5633 16.1345 28.5249C16.3969 28.4865 16.6337 28.3393 16.7873 28.1153L21.2865 21.4785L24.8321 26.1569C25.1521 26.5793 25.7537 26.6625 26.1761 26.3425C26.5985 26.0225 26.6817 25.4209 26.3617 24.9985L22.0097 19.2513Z" fill="#222020"/>
</g>
</svg>
