<svg width="570" height="193" viewBox="0 0 570 193" fill="none" xmlns="http://www.w3.org/2000/svg">
<g id="Group 1171275058">
<g id="Diagram">
<path id="Line" d="M7.80908 0.5H566.134" stroke="#EEF0F2" stroke-dasharray="4 4"/>
<path id="Line_2" d="M7.80908 64.5H566.134" stroke="#EEF0F2" stroke-dasharray="4 4"/>
<path id="Line_3" d="M7.80908 128.5H566.134" stroke="#EEF0F2" stroke-dasharray="4 4"/>
<path id="Line  2" d="M7.80908 192.5H566.134" stroke="#EEF0F2" stroke-dasharray="4 4"/>
</g>
<g id="Diagram_2">
<path id="Shape" d="M439.485 65.386L438.497 64.257L438.497 64.2571L439.485 65.386ZM441.602 65.5276L442.731 64.5403L442.731 64.5397L441.602 65.5276ZM441.46 67.6438L442.448 68.7727L442.448 68.7726L441.46 67.6438ZM411.6 96.1682L412.656 97.2334L411.6 96.1682ZM382.617 122.881L383.557 124.05L382.617 122.881ZM309.841 150.5V152V150.5ZM182.736 105.703L181.972 106.994L181.972 106.994L182.736 105.703ZM182.208 103.649L180.918 102.885L180.917 102.885L182.208 103.649ZM184.263 103.121L185.027 101.83L185.027 101.83L184.263 103.121ZM309.841 147.5V149V147.5ZM380.737 120.544L381.677 121.713L380.737 120.544ZM409.489 94.0374L410.545 95.1026L409.489 94.0374ZM111.905 81.0002V79.5002V81.0002ZM171.521 96.0276L172.208 94.6941L172.208 94.694L171.521 96.0276ZM172.167 98.0481L173.501 98.7351L173.501 98.7348L172.167 98.0481ZM170.147 98.6946L169.46 100.028L169.46 100.028L170.147 98.6946ZM111.905 84.0002V82.5002V84.0002ZM9.11572 129.239L10.4212 129.977L10.4213 129.977L9.11572 129.239ZM7.07178 129.806L6.33318 131.111L6.33354 131.112L7.07178 129.806ZM6.50439 127.762L5.19884 127.023L5.19857 127.024L6.50439 127.762ZM566.134 65.0149V63.5149V65.0149ZM567.634 66.5149H569.134V66.5147L567.634 66.5149ZM566.134 68.0149V66.5149V68.0149ZM455.143 104.453L456.05 105.648L456.051 105.648L455.143 104.453ZM453.042 104.166L451.847 105.073L451.847 105.074L453.042 104.166ZM453.329 102.065L452.421 100.87L452.421 100.871L453.329 102.065ZM439.485 65.386L440.473 66.515L440.473 66.5155L441.602 65.5276L442.731 64.5397C441.64 63.2938 439.745 63.1657 438.497 64.257L439.485 65.386ZM441.602 65.5276L440.473 66.5149L440.473 66.515L441.46 67.6438L442.448 68.7726C443.694 67.682 443.822 65.7874 442.731 64.5403L441.602 65.5276ZM441.46 67.6438L440.473 66.5149C429.84 75.8184 420.103 85.6257 410.544 95.103L411.6 96.1682L412.656 97.2334C422.243 87.7293 431.902 78.0001 442.448 68.7727L441.46 67.6438ZM411.6 96.1682L410.544 95.103C400.985 104.58 391.602 113.728 381.676 121.712L382.617 122.881L383.557 124.05C393.618 115.956 403.101 106.707 412.656 97.2334L411.6 96.1682ZM382.617 122.881L381.676 121.712C361.825 137.682 339.8 149 309.841 149V150.5V152C340.686 152 363.355 140.301 383.557 124.05L382.617 122.881ZM309.841 150.5V149C247.204 149 216.258 123.788 183.499 104.412L182.736 105.703L181.972 106.994C214.51 126.24 246.216 152 309.841 152V150.5ZM182.736 105.703L183.5 104.412L183.5 104.412L182.208 103.649L180.917 102.885C180.074 104.311 180.546 106.151 181.972 106.994L182.736 105.703ZM182.208 103.649L183.499 104.412L183.5 104.412L184.263 103.121L185.027 101.83C183.601 100.987 181.761 101.459 180.918 102.885L182.208 103.649ZM184.263 103.121L183.5 104.412C216.258 123.788 247.204 149 309.841 149V147.5V146C248.192 146 218.006 121.337 185.027 101.83L184.263 103.121ZM309.841 147.5V149C339.8 149 361.825 137.682 381.677 121.713L380.737 120.544L379.797 119.375C360.295 135.063 338.913 146 309.841 146V147.5ZM380.737 120.544L381.677 121.713C391.603 113.728 400.986 104.58 410.545 95.1026L409.489 94.0374L408.433 92.9721C398.869 102.454 389.587 111.5 379.797 119.375L380.737 120.544ZM409.489 94.0374L410.545 95.1026C420.104 85.6254 429.84 75.8182 440.473 66.5149L439.485 65.386L438.497 64.2571C427.778 73.6364 417.965 83.5218 408.433 92.9721L409.489 94.0374ZM111.905 81.0002V82.5002C135.787 82.5003 154.061 88.7227 170.834 97.3611L171.521 96.0276L172.208 94.694C155.121 85.8944 136.376 79.5003 111.905 79.5002V81.0002ZM171.521 96.0276L170.834 97.361L170.834 97.3614L172.167 98.0481L173.501 98.7348C174.259 97.2624 173.681 95.453 172.208 94.6941L171.521 96.0276ZM172.167 98.0481L170.834 97.3611L170.834 97.361L170.147 98.6946L169.46 100.028C170.933 100.786 172.742 100.208 173.501 98.7351L172.167 98.0481ZM170.147 98.6946L170.834 97.361C154.06 88.7227 135.786 82.5003 111.905 82.5002V84.0002V85.5002C135.197 85.5003 153 91.5511 169.46 100.028L170.147 98.6946ZM111.905 84.0002V82.5002C59.8574 82.5002 25.1592 97.8337 7.81017 128.5L9.11572 129.239L10.4213 129.977C27.008 100.658 60.3727 85.5002 111.905 85.5002V84.0002ZM9.11572 129.239L7.81028 128.5L7.81001 128.5L7.07178 129.806L6.33354 131.112C7.7759 131.927 9.60566 131.418 10.4212 129.977L9.11572 129.239ZM7.07178 129.806L7.81037 128.5L7.81022 128.5L6.50439 127.762L5.19857 127.024C4.38344 128.466 4.89153 130.296 6.33318 131.111L7.07178 129.806ZM6.50439 127.762L7.80995 128.501C25.1589 97.8341 59.8572 82.5002 111.905 82.5002V81.0002V79.5002C59.3433 79.5002 23.3105 95.0087 5.19884 127.023L6.50439 127.762ZM566.134 65.0149V66.5149V66.5151L567.634 66.5149L569.134 66.5147C569.134 64.8583 567.791 63.5149 566.134 63.5149V65.0149ZM567.634 66.5149H566.134V68.0149V69.5149C567.791 69.5149 569.134 68.1717 569.134 66.5149H567.634ZM566.134 68.0149V66.5149C515.645 66.515 481.564 82.489 454.235 103.259L455.143 104.453L456.051 105.648C482.933 85.2172 516.389 69.515 566.134 69.5149V68.0149ZM455.143 104.453L454.236 103.259L454.236 103.259L453.042 104.166L451.847 105.074C452.849 106.393 454.731 106.65 456.05 105.648L455.143 104.453ZM453.042 104.166L454.236 103.259L454.236 103.259L453.329 102.065L452.421 100.871C451.103 101.873 450.845 103.754 451.847 105.073L453.042 104.166ZM453.329 102.065L454.236 103.259C481.565 82.4889 515.645 66.515 566.134 66.5149V65.0149V63.5149C514.901 63.515 480.197 79.7607 452.421 100.87L453.329 102.065Z" fill="#8A69FF"/>
<path id="Shape_2" d="M100 76C103.59 76 106.5 78.9101 106.5 82.5C106.5 86.0899 103.59 89 100 89C96.4106 89 93.5005 86.0899 93.5005 82.5C93.5005 78.9101 96.4106 76 100 76Z" fill="#8A69FF" stroke="white" stroke-width="2"/>
<path id="Shape_3" d="M309 143C312.59 143 315.5 145.91 315.5 149.5C315.5 153.09 312.59 156 309 156C305.411 156 302.5 153.09 302.5 149.5C302.5 145.91 305.411 143 309 143Z" fill="#8A69FF" stroke="white" stroke-width="2"/>
<path id="Shape_4" d="M419 80C422.59 80 425.5 82.9101 425.5 86.5C425.5 90.0899 422.59 93 419 93C415.411 93 412.5 90.0899 412.5 86.5C412.5 82.9101 415.411 80 419 80Z" fill="#8A69FF" stroke="white" stroke-width="2"/>
</g>
<g id="Diagram_3">
<path id="Path 17" d="M7.80908 161.5C7.80908 161.5 90.4583 160.492 117.424 149C158.643 131.433 169.35 94.9557 206.535 87.4999C298.8 68.9999 283.029 24.4999 337.442 12.9999C391.855 1.49989 429.707 87.4999 566.134 87.4999" stroke="#F88B3D" stroke-width="3" stroke-linecap="round"/>
<path id="Shape_5" d="M96.0005 148C99.5903 148 102.5 150.91 102.5 154.5C102.5 158.09 99.5903 161 96.0005 161C92.4106 161 89.5005 158.09 89.5005 154.5C89.5005 150.91 92.4106 148 96.0005 148Z" fill="#F88B3D" stroke="white" stroke-width="2"/>
<path id="Shape_6" d="M342 5C345.59 5 348.5 7.91015 348.5 11.5C348.5 15.0899 345.59 18 342 18C338.411 18 335.5 15.0899 335.5 11.5C335.5 7.91015 338.411 5 342 5Z" fill="#F88B3D" stroke="white" stroke-width="2"/>
<path id="Shape_7" d="M526 78C529.59 78 532.5 80.9101 532.5 84.5C532.5 88.0899 529.59 91 526 91C522.411 91 519.5 88.0899 519.5 84.5C519.5 80.9101 522.411 78 526 78Z" fill="#F88B3D" stroke="white" stroke-width="2"/>
</g>
<g id="Diagram_4">
<path id="Path 16" d="M1.50049 114.5C112.692 166 156.065 64.5 211.267 64.5C266.468 64.5 262.525 117 351.636 117C440.748 117 436.805 64.5 566.134 64.5" stroke="#47D7AC" stroke-width="3" stroke-linecap="round"/>
<path id="Shape_8" d="M65.0005 122C68.5903 122 71.5005 124.91 71.5005 128.5C71.5005 132.09 68.5903 135 65.0005 135C61.4106 135 58.5005 132.09 58.5005 128.5C58.5005 124.91 61.4106 122 65.0005 122Z" fill="#47D7AC" stroke="white" stroke-width="2"/>
<path id="Shape_9" d="M203 58C206.59 58 209.5 60.9101 209.5 64.5C209.5 68.0899 206.59 71 203 71C199.411 71 196.5 68.0899 196.5 64.5C196.5 60.9101 199.411 58 203 58Z" fill="#47D7AC" stroke="white" stroke-width="2"/>
<path id="Shape_10" d="M526 58C529.59 58 532.5 60.9101 532.5 64.5C532.5 68.0899 529.59 71 526 71C522.411 71 519.5 68.0899 519.5 64.5C519.5 60.9101 522.411 58 526 58Z" fill="#47D7AC" stroke="white" stroke-width="2"/>
</g>
</g>
</svg>
